<svg width="32" height="32" viewBox="0 0 32 32" fill="none" xmlns="http://www.w3.org/2000/svg">
<path d="M26.3119 11.8683C26.1918 11.9407 23.334 13.469 23.334 16.8578C23.4687 20.7224 26.9405 22.0777 27 22.0777C26.9405 22.1501 26.4759 23.924 25.0996 25.7834C24.0074 27.3851 22.7952 29 20.9544 29C19.2034 29 18.5748 27.9325 16.5544 27.9325C14.3846 27.9325 13.7707 29 12.1095 29C10.2686 29 8.96659 27.2986 7.81486 25.7119C6.31858 23.6352 5.04679 20.3763 5.0019 17.2471C4.97164 15.589 5.30154 13.9591 6.13899 12.5746C7.32098 10.6418 9.43119 9.32976 11.7356 9.2865C13.5013 9.22913 15.0727 10.4546 16.1503 10.4546C17.1829 10.4546 19.1136 9.2865 21.2979 9.2865C22.2408 9.28744 24.7551 9.56113 26.3119 11.8683ZM16.0009 8.95543C15.6867 7.44118 16.5544 5.92693 17.3625 4.961C18.3952 3.79287 20.0262 3 21.4326 3C21.5224 4.51425 20.9534 5.99935 19.9364 7.08096C19.0238 8.2491 17.4523 9.12849 16.0009 8.95543Z" fill="white"/>
</svg>
