<svg width="32" height="32" viewBox="0 0 32 32" fill="none" xmlns="http://www.w3.org/2000/svg">
<mask id="mask0_19391_27457" style="mask-type:alpha" maskUnits="userSpaceOnUse" x="7" y="3" width="24" height="26">
<path d="M30.0484 14.4004C31.3172 15.0986 31.3172 16.9014 30.0484 17.5996L9.75627 28.7659C8.52052 29.4459 7 28.5634 7 27.1663L7 4.83374C7 3.43657 8.52052 2.55415 9.75627 3.23415L30.0484 14.4004Z" fill="#C4C4C4"/>
</mask>
<g mask="url(#mask0_19391_27457)">
<path d="M4.63473 28.5464L17.2923 15.8177L4.84319 3.29858C4.34653 3.61697 4 4.16666 4 4.83365V27.1662C4 27.7352 4.25223 28.2189 4.63473 28.5464Z" fill="url(#paint0_linear_19391_27457)"/>
<path d="M27.0483 14.4003C28.3171 15.0985 28.3171 16.9012 27.0483 17.5994L21.929 20.4165L17.2922 15.8175L21.6925 11.4531L27.0483 14.4003Z" fill="url(#paint1_linear_19391_27457)"/>
<path d="M21.9292 20.4166L17.2924 15.8176L4.63477 28.5464C5.19139 29.023 6.02389 29.1689 6.75635 28.7658L21.9292 20.4166Z" fill="url(#paint2_linear_19391_27457)"/>
<path d="M4.84326 3.29865L17.2924 15.8177L21.6927 11.4533L6.75631 3.23415C6.11052 2.87878 5.38695 2.95013 4.84326 3.29865Z" fill="url(#paint3_linear_19391_27457)"/>
</g>
<defs>
<linearGradient id="paint0_linear_19391_27457" x1="12.6769" y1="10.8737" x2="4.07106" y2="19.5504" gradientUnits="userSpaceOnUse">
<stop stop-color="#00C3FF"/>
<stop offset="1" stop-color="#1BE2FA"/>
</linearGradient>
<linearGradient id="paint1_linear_19391_27457" x1="17.2922" y1="15.8176" x2="28.7384" y2="15.8176" gradientUnits="userSpaceOnUse">
<stop stop-color="#FFCE00"/>
<stop offset="1" stop-color="#FFEA00"/>
</linearGradient>
<linearGradient id="paint2_linear_19391_27457" x1="4.36932" y1="30.1002" x2="19.595" y2="17.8934" gradientUnits="userSpaceOnUse">
<stop stop-color="#DE2453"/>
<stop offset="1" stop-color="#FE3944"/>
</linearGradient>
<linearGradient id="paint3_linear_19391_27457" x1="5.10774" y1="1.90137" x2="19.5975" y2="13.7365" gradientUnits="userSpaceOnUse">
<stop stop-color="#11D574"/>
<stop offset="1" stop-color="#01F176"/>
</linearGradient>
</defs>
</svg>
