<svg width="55" height="54" viewBox="0 0 55 54" fill="none" xmlns="http://www.w3.org/2000/svg">
<path d="M27.7268 48.7917C40.3907 48.7917 50.6568 38.4383 50.6568 25.6667C50.6568 12.8952 40.3907 2.54175 27.7268 2.54175C15.063 2.54175 4.79688 12.8952 4.79688 25.6667C4.79688 38.4383 15.063 48.7917 27.7268 48.7917Z" fill="white"/>
<path d="M27.6844 0C12.8522 0 0.54027 12 0.498954 26.9167C0.457639 34.4167 3.47365 41.2083 8.34885 46.0833C13.1827 50.9583 19.8758 54 27.2712 54C34.6667 54 41.3597 50.9583 46.1936 46.0833C51.0275 41.2083 54.0435 34.4583 54.0435 27V6.16667C54.0848 2.79167 51.3167 0 47.9289 0H27.6844ZM45.7805 26.9167C45.7805 32.0417 43.7147 36.7083 40.3682 40.0417C37.0216 43.4167 32.4356 45.5 27.3539 45.5C22.2721 45.5 17.6448 43.4167 14.3396 40.0417C11.0343 36.7083 8.96858 32.125 8.92727 27.0417C8.84464 16.75 17.4795 8.33333 27.6844 8.33333H39.9963L33.0141 15.375H27.6018C21.3218 15.375 16.0335 20.375 15.9095 26.6667C15.8269 29.9583 17.149 32.9167 19.2561 35.0833C21.3218 37.1667 24.1726 38.4583 27.3539 38.4583C29.998 38.4583 32.477 37.5417 34.4188 36C36.3606 34.4583 37.8066 32.2917 38.4264 29.8333H28.8412L34.4188 24.2083H45.7805V26.9167Z" fill="#023AFF"/>
</svg>
