<svg width="162" height="54" viewBox="0 0 162 54" fill="none" xmlns="http://www.w3.org/2000/svg">
<rect width="162" height="54" rx="8" fill="white"/>
<path d="M41.3119 23.8683C41.1918 23.9407 38.334 25.469 38.334 28.8578C38.4687 32.7224 41.9405 34.0777 42 34.0777C41.9405 34.1501 41.4759 35.924 40.0996 37.7834C39.0074 39.3851 37.7952 41 35.9544 41C34.2034 41 33.5748 39.9325 31.5544 39.9325C29.3846 39.9325 28.7707 41 27.1095 41C25.2686 41 23.9666 39.2986 22.8149 37.7119C21.3186 35.6352 20.0468 32.3763 20.0019 29.2471C19.9716 27.589 20.3015 25.9591 21.139 24.5746C22.321 22.6418 24.4312 21.3298 26.7356 21.2865C28.5013 21.2291 30.0727 22.4546 31.1503 22.4546C32.1829 22.4546 34.1136 21.2865 36.2979 21.2865C37.2408 21.2874 39.7551 21.5611 41.3119 23.8683ZM31.0009 20.9554C30.6867 19.4412 31.5544 17.9269 32.3625 16.961C33.3952 15.7929 35.0262 15 36.4326 15C36.5224 16.5143 35.9534 17.9993 34.9364 19.081C34.0238 20.2491 32.4523 21.1285 31.0009 20.9554Z" fill="black"/>
<path d="M54.2988 16H52.5176L52.5293 15.0801H54.2988C54.9082 15.0801 55.416 14.9531 55.8223 14.6992C56.2285 14.4414 56.5332 14.082 56.7363 13.6211C56.9434 13.1562 57.0469 12.6133 57.0469 11.9922V11.4707C57.0469 10.9824 56.9883 10.5488 56.8711 10.1699C56.7539 9.78711 56.582 9.46484 56.3555 9.20312C56.1289 8.9375 55.8516 8.73633 55.5234 8.59961C55.1992 8.46289 54.8262 8.39453 54.4043 8.39453H52.4824V7.46875H54.4043C54.9629 7.46875 55.4727 7.5625 55.9336 7.75C56.3945 7.93359 56.791 8.20117 57.123 8.55273C57.459 8.90039 57.7168 9.32227 57.8965 9.81836C58.0762 10.3105 58.166 10.8652 58.166 11.4824V11.9922C58.166 12.6094 58.0762 13.166 57.8965 13.6621C57.7168 14.1543 57.457 14.5742 57.1172 14.9219C56.7812 15.2695 56.375 15.5371 55.8984 15.7246C55.4258 15.9082 54.8926 16 54.2988 16ZM53.1211 7.46875V16H51.9902V7.46875H53.1211ZM62.332 16.1172C61.8906 16.1172 61.4902 16.043 61.1309 15.8945C60.7754 15.7422 60.4688 15.5293 60.2109 15.2559C59.957 14.9824 59.7617 14.6582 59.625 14.2832C59.4883 13.9082 59.4199 13.498 59.4199 13.0527V12.8066C59.4199 12.291 59.4961 11.832 59.6484 11.4297C59.8008 11.0234 60.0078 10.6797 60.2695 10.3984C60.5312 10.1172 60.8281 9.9043 61.1602 9.75977C61.4922 9.61523 61.8359 9.54297 62.1914 9.54297C62.6445 9.54297 63.0352 9.62109 63.3633 9.77734C63.6953 9.93359 63.9668 10.1523 64.1777 10.4336C64.3887 10.7109 64.5449 11.0391 64.6465 11.418C64.748 11.793 64.7988 12.2031 64.7988 12.6484V13.1348H60.0645V12.25H63.7148V12.168C63.6992 11.8867 63.6406 11.6133 63.5391 11.3477C63.4414 11.082 63.2852 10.8633 63.0703 10.6914C62.8555 10.5195 62.5625 10.4336 62.1914 10.4336C61.9453 10.4336 61.7188 10.4863 61.5117 10.5918C61.3047 10.6934 61.127 10.8457 60.9785 11.0488C60.8301 11.252 60.7148 11.5 60.6328 11.793C60.5508 12.0859 60.5098 12.4238 60.5098 12.8066V13.0527C60.5098 13.3535 60.5508 13.6367 60.6328 13.9023C60.7188 14.1641 60.8418 14.3945 61.002 14.5938C61.166 14.793 61.3633 14.9492 61.5938 15.0625C61.8281 15.1758 62.0938 15.2324 62.3906 15.2324C62.7734 15.2324 63.0977 15.1543 63.3633 14.998C63.6289 14.8418 63.8613 14.6328 64.0605 14.3711L64.7168 14.8926C64.5801 15.0996 64.4062 15.2969 64.1953 15.4844C63.9844 15.6719 63.7246 15.8242 63.416 15.9414C63.1113 16.0586 62.75 16.1172 62.332 16.1172ZM69.7559 14.3184C69.7559 14.1621 69.7207 14.0176 69.6504 13.8848C69.584 13.748 69.4453 13.625 69.2344 13.5156C69.0273 13.4023 68.7148 13.3047 68.2969 13.2227C67.9453 13.1484 67.627 13.0605 67.3418 12.959C67.0605 12.8574 66.8203 12.7344 66.6211 12.5898C66.4258 12.4453 66.2754 12.2754 66.1699 12.0801C66.0645 11.8848 66.0117 11.6562 66.0117 11.3945C66.0117 11.1445 66.0664 10.9082 66.1758 10.6855C66.2891 10.4629 66.4473 10.2656 66.6504 10.0938C66.8574 9.92188 67.1055 9.78711 67.3945 9.68945C67.6836 9.5918 68.0059 9.54297 68.3613 9.54297C68.8691 9.54297 69.3027 9.63281 69.6621 9.8125C70.0215 9.99219 70.2969 10.2324 70.4883 10.5332C70.6797 10.8301 70.7754 11.1602 70.7754 11.5234H69.6914C69.6914 11.3477 69.6387 11.1777 69.5332 11.0137C69.4316 10.8457 69.2812 10.707 69.082 10.5977C68.8867 10.4883 68.6465 10.4336 68.3613 10.4336C68.0605 10.4336 67.8164 10.4805 67.6289 10.5742C67.4453 10.6641 67.3105 10.7793 67.2246 10.9199C67.1426 11.0605 67.1016 11.209 67.1016 11.3652C67.1016 11.4824 67.1211 11.5879 67.1602 11.6816C67.2031 11.7715 67.2773 11.8555 67.3828 11.9336C67.4883 12.0078 67.6367 12.0781 67.8281 12.1445C68.0195 12.2109 68.2637 12.2773 68.5605 12.3438C69.0801 12.4609 69.5078 12.6016 69.8438 12.7656C70.1797 12.9297 70.4297 13.1309 70.5938 13.3691C70.7578 13.6074 70.8398 13.8965 70.8398 14.2363C70.8398 14.5137 70.7812 14.7676 70.6641 14.998C70.5508 15.2285 70.3848 15.4277 70.166 15.5957C69.9512 15.7598 69.6934 15.8887 69.3926 15.9824C69.0957 16.0723 68.7617 16.1172 68.3906 16.1172C67.832 16.1172 67.3594 16.0176 66.9727 15.8184C66.5859 15.6191 66.293 15.3613 66.0938 15.0449C65.8945 14.7285 65.7949 14.3945 65.7949 14.043H66.8848C66.9004 14.3398 66.9863 14.5762 67.1426 14.752C67.2988 14.9238 67.4902 15.0469 67.7168 15.1211C67.9434 15.1914 68.168 15.2266 68.3906 15.2266C68.6875 15.2266 68.9355 15.1875 69.1348 15.1094C69.3379 15.0312 69.4922 14.9238 69.5977 14.7871C69.7031 14.6504 69.7559 14.4941 69.7559 14.3184ZM74.8008 15.2266C75.0586 15.2266 75.2969 15.1738 75.5156 15.0684C75.7344 14.9629 75.9141 14.8184 76.0547 14.6348C76.1953 14.4473 76.2754 14.2344 76.2949 13.9961H77.3262C77.3066 14.3711 77.1797 14.7207 76.9453 15.0449C76.7148 15.3652 76.4121 15.625 76.0371 15.8242C75.6621 16.0195 75.25 16.1172 74.8008 16.1172C74.3242 16.1172 73.9082 16.0332 73.5527 15.8652C73.2012 15.6973 72.9082 15.4668 72.6738 15.1738C72.4434 14.8809 72.2695 14.5449 72.1523 14.166C72.0391 13.7832 71.9824 13.3789 71.9824 12.9531V12.707C71.9824 12.2812 72.0391 11.8789 72.1523 11.5C72.2695 11.1172 72.4434 10.7793 72.6738 10.4863C72.9082 10.1934 73.2012 9.96289 73.5527 9.79492C73.9082 9.62695 74.3242 9.54297 74.8008 9.54297C75.2969 9.54297 75.7305 9.64453 76.1016 9.84766C76.4727 10.0469 76.7637 10.3203 76.9746 10.668C77.1895 11.0117 77.3066 11.4023 77.3262 11.8398H76.2949C76.2754 11.5781 76.2012 11.3418 76.0723 11.1309C75.9473 10.9199 75.7754 10.752 75.5566 10.627C75.3418 10.498 75.0898 10.4336 74.8008 10.4336C74.4688 10.4336 74.1895 10.5 73.9629 10.6328C73.7402 10.7617 73.5625 10.9375 73.4297 11.1602C73.3008 11.3789 73.207 11.623 73.1484 11.8926C73.0938 12.1582 73.0664 12.4297 73.0664 12.707V12.9531C73.0664 13.2305 73.0938 13.5039 73.1484 13.7734C73.2031 14.043 73.2949 14.2871 73.4238 14.5059C73.5566 14.7246 73.7344 14.9004 73.957 15.0332C74.1836 15.1621 74.4648 15.2266 74.8008 15.2266ZM82.2832 14.916V11.6523C82.2832 11.4023 82.2324 11.1855 82.1309 11.002C82.0332 10.8145 81.8848 10.6699 81.6855 10.5684C81.4863 10.4668 81.2402 10.416 80.9473 10.416C80.6738 10.416 80.4336 10.4629 80.2266 10.5566C80.0234 10.6504 79.8633 10.7734 79.7461 10.9258C79.6328 11.0781 79.5762 11.2422 79.5762 11.418H78.4922C78.4922 11.1914 78.5508 10.9668 78.668 10.7441C78.7852 10.5215 78.9531 10.3203 79.1719 10.1406C79.3945 9.95703 79.6602 9.8125 79.9688 9.70703C80.2812 9.59766 80.6289 9.54297 81.0117 9.54297C81.4727 9.54297 81.8789 9.62109 82.2305 9.77734C82.5859 9.93359 82.8633 10.1699 83.0625 10.4863C83.2656 10.7988 83.3672 11.1914 83.3672 11.6641V14.6172C83.3672 14.8281 83.3848 15.0527 83.4199 15.291C83.459 15.5293 83.5156 15.7344 83.5898 15.9062V16H82.459C82.4043 15.875 82.3613 15.709 82.3301 15.502C82.2988 15.291 82.2832 15.0957 82.2832 14.916ZM82.4707 12.1562L82.4824 12.918H81.3867C81.0781 12.918 80.8027 12.9434 80.5605 12.9941C80.3184 13.041 80.1152 13.1133 79.9512 13.2109C79.7871 13.3086 79.6621 13.4316 79.5762 13.5801C79.4902 13.7246 79.4473 13.8945 79.4473 14.0898C79.4473 14.2891 79.4922 14.4707 79.582 14.6348C79.6719 14.7988 79.8066 14.9297 79.9863 15.0273C80.1699 15.1211 80.3945 15.168 80.6602 15.168C80.9922 15.168 81.2852 15.0977 81.5391 14.957C81.793 14.8164 81.9941 14.6445 82.1426 14.4414C82.2949 14.2383 82.377 14.041 82.3887 13.8496L82.8516 14.3711C82.8242 14.5352 82.75 14.7168 82.6289 14.916C82.5078 15.1152 82.3457 15.3066 82.1426 15.4902C81.9434 15.6699 81.7051 15.8203 81.4277 15.9414C81.1543 16.0586 80.8457 16.1172 80.502 16.1172C80.0723 16.1172 79.6953 16.0332 79.3711 15.8652C79.0508 15.6973 78.8008 15.4727 78.6211 15.1914C78.4453 14.9062 78.3574 14.5879 78.3574 14.2363C78.3574 13.8965 78.4238 13.5977 78.5566 13.3398C78.6895 13.0781 78.8809 12.8613 79.1309 12.6895C79.3809 12.5137 79.6816 12.3809 80.0332 12.291C80.3848 12.2012 80.7773 12.1562 81.2109 12.1562H82.4707ZM86.1562 10.6562V16H85.0723V9.66016H86.127L86.1562 10.6562ZM88.1367 9.625L88.1309 10.6328C88.041 10.6133 87.9551 10.6016 87.873 10.5977C87.7949 10.5898 87.7051 10.5859 87.6035 10.5859C87.3535 10.5859 87.1328 10.625 86.9414 10.7031C86.75 10.7812 86.5879 10.8906 86.4551 11.0312C86.3223 11.1719 86.2168 11.3398 86.1387 11.5352C86.0645 11.7266 86.0156 11.9375 85.9922 12.168L85.6875 12.3438C85.6875 11.9609 85.7246 11.6016 85.7988 11.2656C85.877 10.9297 85.9961 10.6328 86.1562 10.375C86.3164 10.1133 86.5195 9.91016 86.7656 9.76562C87.0156 9.61719 87.3125 9.54297 87.6562 9.54297C87.7344 9.54297 87.8242 9.55273 87.9258 9.57227C88.0273 9.58789 88.0977 9.60547 88.1367 9.625ZM93.1289 9.66016H94.1133V15.8652C94.1133 16.4238 94 16.9004 93.7734 17.2949C93.5469 17.6895 93.2305 17.9883 92.8242 18.1914C92.4219 18.3984 91.957 18.502 91.4297 18.502C91.2109 18.502 90.9531 18.4668 90.6562 18.3965C90.3633 18.3301 90.0742 18.2148 89.7891 18.0508C89.5078 17.8906 89.2715 17.6738 89.0801 17.4004L89.6484 16.7559C89.9141 17.0762 90.1914 17.2988 90.4805 17.4238C90.7734 17.5488 91.0625 17.6113 91.3477 17.6113C91.6914 17.6113 91.9883 17.5469 92.2383 17.418C92.4883 17.2891 92.6816 17.0977 92.8184 16.8438C92.959 16.5938 93.0293 16.2852 93.0293 15.918V11.0547L93.1289 9.66016ZM88.7637 12.9004V12.7773C88.7637 12.293 88.8203 11.8535 88.9336 11.459C89.0508 11.0605 89.2168 10.7188 89.4316 10.4336C89.6504 10.1484 89.9141 9.92969 90.2227 9.77734C90.5312 9.62109 90.8789 9.54297 91.2656 9.54297C91.6641 9.54297 92.0117 9.61328 92.3086 9.75391C92.6094 9.89062 92.8633 10.0918 93.0703 10.3574C93.2812 10.6191 93.4473 10.9355 93.5684 11.3066C93.6895 11.6777 93.7734 12.0977 93.8203 12.5664V13.1055C93.7773 13.5703 93.6934 13.9883 93.5684 14.3594C93.4473 14.7305 93.2812 15.0469 93.0703 15.3086C92.8633 15.5703 92.6094 15.7715 92.3086 15.9121C92.0078 16.0488 91.6562 16.1172 91.2539 16.1172C90.875 16.1172 90.5312 16.0371 90.2227 15.877C89.918 15.7168 89.6562 15.4922 89.4375 15.2031C89.2188 14.9141 89.0508 14.5742 88.9336 14.1836C88.8203 13.7891 88.7637 13.3613 88.7637 12.9004ZM89.8477 12.7773V12.9004C89.8477 13.2168 89.8789 13.5137 89.9414 13.791C90.0078 14.0684 90.1074 14.3125 90.2402 14.5234C90.377 14.7344 90.5508 14.9004 90.7617 15.0215C90.9727 15.1387 91.2246 15.1973 91.5176 15.1973C91.877 15.1973 92.1738 15.1211 92.4082 14.9688C92.6426 14.8164 92.8281 14.6152 92.9648 14.3652C93.1055 14.1152 93.2148 13.8438 93.293 13.5508V12.1387C93.25 11.9238 93.1836 11.7168 93.0938 11.5176C93.0078 11.3145 92.8945 11.1348 92.7539 10.9785C92.6172 10.8184 92.4473 10.6914 92.2441 10.5977C92.041 10.5039 91.8027 10.457 91.5293 10.457C91.2324 10.457 90.9766 10.5195 90.7617 10.6445C90.5508 10.7656 90.377 10.9336 90.2402 11.1484C90.1074 11.3594 90.0078 11.6055 89.9414 11.8867C89.8789 12.1641 89.8477 12.4609 89.8477 12.7773ZM99.498 14.916V11.6523C99.498 11.4023 99.4473 11.1855 99.3457 11.002C99.248 10.8145 99.0996 10.6699 98.9004 10.5684C98.7012 10.4668 98.4551 10.416 98.1621 10.416C97.8887 10.416 97.6484 10.4629 97.4414 10.5566C97.2383 10.6504 97.0781 10.7734 96.9609 10.9258C96.8477 11.0781 96.791 11.2422 96.791 11.418H95.707C95.707 11.1914 95.7656 10.9668 95.8828 10.7441C96 10.5215 96.168 10.3203 96.3867 10.1406C96.6094 9.95703 96.875 9.8125 97.1836 9.70703C97.4961 9.59766 97.8438 9.54297 98.2266 9.54297C98.6875 9.54297 99.0938 9.62109 99.4453 9.77734C99.8008 9.93359 100.078 10.1699 100.277 10.4863C100.48 10.7988 100.582 11.1914 100.582 11.6641V14.6172C100.582 14.8281 100.6 15.0527 100.635 15.291C100.674 15.5293 100.73 15.7344 100.805 15.9062V16H99.6738C99.6191 15.875 99.5762 15.709 99.5449 15.502C99.5137 15.291 99.498 15.0957 99.498 14.916ZM99.6855 12.1562L99.6973 12.918H98.6016C98.293 12.918 98.0176 12.9434 97.7754 12.9941C97.5332 13.041 97.3301 13.1133 97.166 13.2109C97.002 13.3086 96.877 13.4316 96.791 13.5801C96.7051 13.7246 96.6621 13.8945 96.6621 14.0898C96.6621 14.2891 96.707 14.4707 96.7969 14.6348C96.8867 14.7988 97.0215 14.9297 97.2012 15.0273C97.3848 15.1211 97.6094 15.168 97.875 15.168C98.207 15.168 98.5 15.0977 98.7539 14.957C99.0078 14.8164 99.209 14.6445 99.3574 14.4414C99.5098 14.2383 99.5918 14.041 99.6035 13.8496L100.066 14.3711C100.039 14.5352 99.9648 14.7168 99.8438 14.916C99.7227 15.1152 99.5605 15.3066 99.3574 15.4902C99.1582 15.6699 98.9199 15.8203 98.6426 15.9414C98.3691 16.0586 98.0605 16.1172 97.7168 16.1172C97.2871 16.1172 96.9102 16.0332 96.5859 15.8652C96.2656 15.6973 96.0156 15.4727 95.8359 15.1914C95.6602 14.9062 95.5723 14.5879 95.5723 14.2363C95.5723 13.8965 95.6387 13.5977 95.7715 13.3398C95.9043 13.0781 96.0957 12.8613 96.3457 12.6895C96.5957 12.5137 96.8965 12.3809 97.248 12.291C97.5996 12.2012 97.9922 12.1562 98.4258 12.1562H99.6855ZM107.895 16.1172C107.453 16.1172 107.053 16.043 106.693 15.8945C106.338 15.7422 106.031 15.5293 105.773 15.2559C105.52 14.9824 105.324 14.6582 105.188 14.2832C105.051 13.9082 104.982 13.498 104.982 13.0527V12.8066C104.982 12.291 105.059 11.832 105.211 11.4297C105.363 11.0234 105.57 10.6797 105.832 10.3984C106.094 10.1172 106.391 9.9043 106.723 9.75977C107.055 9.61523 107.398 9.54297 107.754 9.54297C108.207 9.54297 108.598 9.62109 108.926 9.77734C109.258 9.93359 109.529 10.1523 109.74 10.4336C109.951 10.7109 110.107 11.0391 110.209 11.418C110.311 11.793 110.361 12.2031 110.361 12.6484V13.1348H105.627V12.25H109.277V12.168C109.262 11.8867 109.203 11.6133 109.102 11.3477C109.004 11.082 108.848 10.8633 108.633 10.6914C108.418 10.5195 108.125 10.4336 107.754 10.4336C107.508 10.4336 107.281 10.4863 107.074 10.5918C106.867 10.6934 106.689 10.8457 106.541 11.0488C106.393 11.252 106.277 11.5 106.195 11.793C106.113 12.0859 106.072 12.4238 106.072 12.8066V13.0527C106.072 13.3535 106.113 13.6367 106.195 13.9023C106.281 14.1641 106.404 14.3945 106.564 14.5938C106.729 14.793 106.926 14.9492 107.156 15.0625C107.391 15.1758 107.656 15.2324 107.953 15.2324C108.336 15.2324 108.66 15.1543 108.926 14.998C109.191 14.8418 109.424 14.6328 109.623 14.3711L110.279 14.8926C110.143 15.0996 109.969 15.2969 109.758 15.4844C109.547 15.6719 109.287 15.8242 108.979 15.9414C108.674 16.0586 108.312 16.1172 107.895 16.1172ZM112.711 11.0137V16H111.627V9.66016H112.652L112.711 11.0137ZM112.453 12.5898L112.002 12.5723C112.006 12.1387 112.07 11.7383 112.195 11.3711C112.32 11 112.496 10.6777 112.723 10.4043C112.949 10.1309 113.219 9.91992 113.531 9.77148C113.848 9.61914 114.197 9.54297 114.58 9.54297C114.893 9.54297 115.174 9.58594 115.424 9.67188C115.674 9.75391 115.887 9.88672 116.062 10.0703C116.242 10.2539 116.379 10.4922 116.473 10.7852C116.566 11.0742 116.613 11.4277 116.613 11.8457V16H115.523V11.834C115.523 11.502 115.475 11.2363 115.377 11.0371C115.279 10.834 115.137 10.6875 114.949 10.5977C114.762 10.5039 114.531 10.457 114.258 10.457C113.988 10.457 113.742 10.5137 113.52 10.627C113.301 10.7402 113.111 10.8965 112.951 11.0957C112.795 11.2949 112.672 11.5234 112.582 11.7812C112.496 12.0352 112.453 12.3047 112.453 12.5898Z" fill="black"/>
<path d="M57.9824 28.6758L53.7344 41H51.166L56.5176 26.7812H58.1582L57.9824 28.6758ZM61.5371 41L57.2793 28.6758L57.0938 26.7812H58.7441L64.1152 41H61.5371ZM61.332 35.7266V37.6699H53.5977V35.7266H61.332ZM67.8102 32.4648V45.0625H65.4566V30.4336H67.6246L67.8102 32.4648ZM74.6949 35.6191V35.8242C74.6949 36.5924 74.6038 37.3053 74.4215 37.9629C74.2457 38.6139 73.982 39.1836 73.6305 39.6719C73.2854 40.1536 72.859 40.528 72.3512 40.7949C71.8434 41.0618 71.2574 41.1953 70.5934 41.1953C69.9358 41.1953 69.3596 41.0749 68.8648 40.834C68.3766 40.5866 67.9632 40.2383 67.6246 39.7891C67.2861 39.3398 67.0126 38.8125 66.8043 38.207C66.6025 37.5951 66.4592 36.9245 66.3746 36.1953V35.4043C66.4592 34.6296 66.6025 33.9264 66.8043 33.2949C67.0126 32.6634 67.2861 32.1198 67.6246 31.6641C67.9632 31.2083 68.3766 30.8568 68.8648 30.6094C69.3531 30.362 69.9228 30.2383 70.5738 30.2383C71.2379 30.2383 71.8271 30.3685 72.3414 30.6289C72.8557 30.8828 73.2887 31.2474 73.6402 31.7227C73.9918 32.1914 74.2555 32.7578 74.4312 33.4219C74.607 34.0794 74.6949 34.8118 74.6949 35.6191ZM72.3414 35.8242V35.6191C72.3414 35.1309 72.2958 34.6784 72.2047 34.2617C72.1135 33.8385 71.9703 33.4674 71.775 33.1484C71.5797 32.8294 71.329 32.582 71.023 32.4062C70.7236 32.224 70.3622 32.1328 69.9391 32.1328C69.5224 32.1328 69.1643 32.2044 68.8648 32.3477C68.5654 32.4844 68.3147 32.6764 68.1129 32.9238C67.9111 33.1712 67.7548 33.4609 67.6441 33.793C67.5335 34.1185 67.4553 34.4733 67.4098 34.8574V36.752C67.4879 37.2207 67.6214 37.6504 67.8102 38.041C67.999 38.4316 68.2659 38.7441 68.6109 38.9785C68.9625 39.2064 69.4117 39.3203 69.9586 39.3203C70.3818 39.3203 70.7431 39.2292 71.0426 39.0469C71.3421 38.8646 71.5862 38.6139 71.775 38.2949C71.9703 37.9694 72.1135 37.5951 72.2047 37.1719C72.2958 36.7487 72.3414 36.2995 72.3414 35.8242ZM79.2102 32.4648V45.0625H76.8566V30.4336H79.0246L79.2102 32.4648ZM86.0949 35.6191V35.8242C86.0949 36.5924 86.0038 37.3053 85.8215 37.9629C85.6457 38.6139 85.382 39.1836 85.0305 39.6719C84.6854 40.1536 84.259 40.528 83.7512 40.7949C83.2434 41.0618 82.6574 41.1953 81.9934 41.1953C81.3358 41.1953 80.7596 41.0749 80.2648 40.834C79.7766 40.5866 79.3632 40.2383 79.0246 39.7891C78.6861 39.3398 78.4126 38.8125 78.2043 38.207C78.0025 37.5951 77.8592 36.9245 77.7746 36.1953V35.4043C77.8592 34.6296 78.0025 33.9264 78.2043 33.2949C78.4126 32.6634 78.6861 32.1198 79.0246 31.6641C79.3632 31.2083 79.7766 30.8568 80.2648 30.6094C80.7531 30.362 81.3228 30.2383 81.9738 30.2383C82.6379 30.2383 83.2271 30.3685 83.7414 30.6289C84.2557 30.8828 84.6887 31.2474 85.0402 31.7227C85.3918 32.1914 85.6555 32.7578 85.8312 33.4219C86.007 34.0794 86.0949 34.8118 86.0949 35.6191ZM83.7414 35.8242V35.6191C83.7414 35.1309 83.6958 34.6784 83.6047 34.2617C83.5135 33.8385 83.3703 33.4674 83.175 33.1484C82.9797 32.8294 82.729 32.582 82.423 32.4062C82.1236 32.224 81.7622 32.1328 81.3391 32.1328C80.9224 32.1328 80.5643 32.2044 80.2648 32.3477C79.9654 32.4844 79.7147 32.6764 79.5129 32.9238C79.3111 33.1712 79.1548 33.4609 79.0441 33.793C78.9335 34.1185 78.8553 34.4733 78.8098 34.8574V36.752C78.8879 37.2207 79.0214 37.6504 79.2102 38.041C79.399 38.4316 79.6659 38.7441 80.0109 38.9785C80.3625 39.2064 80.8117 39.3203 81.3586 39.3203C81.7818 39.3203 82.1431 39.2292 82.4426 39.0469C82.7421 38.8646 82.9862 38.6139 83.175 38.2949C83.3703 37.9694 83.5135 37.5951 83.6047 37.1719C83.6958 36.7487 83.7414 36.2995 83.7414 35.8242ZM101.092 37.3379C101.092 37.0449 101.047 36.7845 100.955 36.5566C100.871 36.3288 100.718 36.1204 100.496 35.9316C100.275 35.7428 99.9626 35.5605 99.559 35.3848C99.1618 35.2025 98.654 35.0169 98.0355 34.8281C97.3585 34.6198 96.7335 34.3887 96.1605 34.1348C95.5941 33.8743 95.0993 33.5749 94.6762 33.2363C94.253 32.8913 93.9242 32.4974 93.6898 32.0547C93.4555 31.6055 93.3383 31.0879 93.3383 30.502C93.3383 29.9225 93.4587 29.3952 93.6996 28.9199C93.947 28.4447 94.2953 28.0345 94.7445 27.6895C95.2003 27.3379 95.7374 27.0677 96.3559 26.8789C96.9743 26.6836 97.6579 26.5859 98.4066 26.5859C99.4613 26.5859 100.37 26.7812 101.131 27.1719C101.899 27.5625 102.489 28.0866 102.899 28.7441C103.315 29.4017 103.524 30.1276 103.524 30.9219H101.092C101.092 30.4531 100.991 30.0397 100.789 29.6816C100.594 29.3171 100.295 29.0306 99.891 28.8223C99.4939 28.6139 98.9893 28.5098 98.3773 28.5098C97.7979 28.5098 97.3161 28.5977 96.932 28.7734C96.5479 28.9492 96.2615 29.1868 96.0727 29.4863C95.8839 29.7858 95.7895 30.1243 95.7895 30.502C95.7895 30.7689 95.8513 31.013 95.975 31.2344C96.0987 31.4492 96.2875 31.651 96.5414 31.8398C96.7953 32.0221 97.1143 32.1947 97.4984 32.3574C97.8826 32.5202 98.335 32.6764 98.8559 32.8262C99.6436 33.0605 100.33 33.321 100.916 33.6074C101.502 33.8874 101.991 34.2064 102.381 34.5645C102.772 34.9225 103.065 35.3294 103.26 35.7852C103.455 36.2344 103.553 36.7454 103.553 37.3184C103.553 37.9173 103.433 38.4577 103.192 38.9395C102.951 39.4147 102.606 39.8216 102.157 40.1602C101.714 40.4922 101.18 40.7493 100.555 40.9316C99.9366 41.1074 99.2465 41.1953 98.4848 41.1953C97.8012 41.1953 97.1273 41.1042 96.4633 40.9219C95.8057 40.7396 95.2068 40.4629 94.6664 40.0918C94.126 39.7142 93.6964 39.2454 93.3773 38.6855C93.0583 38.1191 92.8988 37.4583 92.8988 36.7031H95.35C95.35 37.1654 95.4281 37.5592 95.5844 37.8848C95.7471 38.2103 95.9717 38.4772 96.2582 38.6855C96.5447 38.8874 96.8767 39.0371 97.2543 39.1348C97.6384 39.2324 98.0486 39.2812 98.4848 39.2812C99.0577 39.2812 99.5362 39.1999 99.9203 39.0371C100.311 38.8743 100.604 38.6465 100.799 38.3535C100.995 38.0605 101.092 37.722 101.092 37.3379ZM110.48 30.4336V32.1523H104.523V30.4336H110.48ZM106.242 27.8457H108.596V38.0801C108.596 38.4056 108.641 38.6562 108.732 38.832C108.83 39.0013 108.964 39.1152 109.133 39.1738C109.302 39.2324 109.501 39.2617 109.729 39.2617C109.891 39.2617 110.048 39.252 110.197 39.2324C110.347 39.2129 110.467 39.1934 110.559 39.1738L110.568 40.9707C110.373 41.0293 110.145 41.0814 109.885 41.127C109.631 41.1725 109.338 41.1953 109.006 41.1953C108.465 41.1953 107.987 41.1009 107.57 40.9121C107.154 40.7168 106.828 40.401 106.594 39.9648C106.359 39.5286 106.242 38.9492 106.242 38.2266V27.8457ZM111.763 35.834V35.6094C111.763 34.8477 111.874 34.1413 112.095 33.4902C112.317 32.8327 112.636 32.263 113.052 31.7812C113.476 31.293 113.99 30.9154 114.595 30.6484C115.207 30.375 115.897 30.2383 116.666 30.2383C117.44 30.2383 118.13 30.375 118.736 30.6484C119.348 30.9154 119.865 31.293 120.289 31.7812C120.712 32.263 121.034 32.8327 121.255 33.4902C121.477 34.1413 121.588 34.8477 121.588 35.6094V35.834C121.588 36.5957 121.477 37.3021 121.255 37.9531C121.034 38.6042 120.712 39.1738 120.289 39.6621C119.865 40.1439 119.351 40.5215 118.746 40.7949C118.14 41.0618 117.453 41.1953 116.685 41.1953C115.91 41.1953 115.217 41.0618 114.605 40.7949C114 40.5215 113.485 40.1439 113.062 39.6621C112.639 39.1738 112.317 38.6042 112.095 37.9531C111.874 37.3021 111.763 36.5957 111.763 35.834ZM114.117 35.6094V35.834C114.117 36.3092 114.166 36.7585 114.263 37.1816C114.361 37.6048 114.514 37.9759 114.722 38.2949C114.931 38.6139 115.198 38.8646 115.523 39.0469C115.849 39.2292 116.236 39.3203 116.685 39.3203C117.121 39.3203 117.499 39.2292 117.818 39.0469C118.143 38.8646 118.41 38.6139 118.619 38.2949C118.827 37.9759 118.98 37.6048 119.078 37.1816C119.182 36.7585 119.234 36.3092 119.234 35.834V35.6094C119.234 35.1406 119.182 34.6979 119.078 34.2812C118.98 33.8581 118.824 33.4837 118.609 33.1582C118.401 32.8327 118.134 32.5788 117.808 32.3965C117.489 32.2077 117.108 32.1133 116.666 32.1133C116.223 32.1133 115.839 32.2077 115.513 32.3965C115.194 32.5788 114.931 32.8327 114.722 33.1582C114.514 33.4837 114.361 33.8581 114.263 34.2812C114.166 34.6979 114.117 35.1406 114.117 35.6094ZM126.073 32.4453V41H123.72V30.4336H125.966L126.073 32.4453ZM129.306 30.3652L129.286 32.5527C129.143 32.5267 128.987 32.5072 128.818 32.4941C128.655 32.4811 128.492 32.4746 128.329 32.4746C127.926 32.4746 127.571 32.5332 127.265 32.6504C126.959 32.7611 126.702 32.9238 126.493 33.1387C126.292 33.347 126.135 33.6009 126.025 33.9004C125.914 34.1999 125.849 34.5352 125.829 34.9062L125.292 34.9453C125.292 34.2812 125.357 33.666 125.488 33.0996C125.618 32.5332 125.813 32.0352 126.073 31.6055C126.34 31.1758 126.672 30.8405 127.07 30.5996C127.473 30.3587 127.939 30.2383 128.466 30.2383C128.609 30.2383 128.762 30.2513 128.925 30.2773C129.094 30.3034 129.221 30.3327 129.306 30.3652ZM135.393 41.1953C134.612 41.1953 133.906 41.0684 133.274 40.8145C132.649 40.554 132.115 40.1927 131.673 39.7305C131.236 39.2682 130.901 38.7246 130.667 38.0996C130.432 37.4746 130.315 36.8008 130.315 36.0781V35.6875C130.315 34.8607 130.436 34.112 130.677 33.4414C130.917 32.7708 131.253 32.1979 131.682 31.7227C132.112 31.2409 132.62 30.873 133.206 30.6191C133.792 30.3652 134.427 30.2383 135.11 30.2383C135.865 30.2383 136.526 30.3652 137.093 30.6191C137.659 30.873 138.128 31.2311 138.499 31.6934C138.876 32.1491 139.156 32.6927 139.339 33.3242C139.527 33.9557 139.622 34.6523 139.622 35.4141V36.4199H131.458V34.7305H137.298V34.5449C137.285 34.1217 137.2 33.7246 137.044 33.3535C136.894 32.9824 136.663 32.6829 136.35 32.4551C136.038 32.2272 135.621 32.1133 135.1 32.1133C134.71 32.1133 134.361 32.1979 134.055 32.3672C133.756 32.5299 133.505 32.7676 133.304 33.0801C133.102 33.3926 132.945 33.7702 132.835 34.2129C132.731 34.6491 132.679 35.1406 132.679 35.6875V36.0781C132.679 36.5404 132.74 36.9701 132.864 37.3672C132.994 37.7578 133.183 38.0996 133.43 38.3926C133.678 38.6855 133.977 38.9167 134.329 39.0859C134.68 39.2487 135.081 39.3301 135.53 39.3301C136.096 39.3301 136.601 39.2161 137.044 38.9883C137.486 38.7604 137.871 38.4382 138.196 38.0215L139.436 39.2227C139.208 39.5547 138.912 39.8737 138.548 40.1797C138.183 40.4792 137.737 40.7233 137.21 40.9121C136.689 41.1009 136.083 41.1953 135.393 41.1953Z" fill="black"/>
</svg>
