<svg width="174" height="54" viewBox="0 0 174 54" fill="none" xmlns="http://www.w3.org/2000/svg">
<g clip-path="url(#clip0_19733_48477)">
<path d="M74.2003 34.8898C72.4544 34.8898 70.8748 34.5567 69.4614 33.8489C68.0481 33.1411 66.801 32.1835 65.8034 31.0178C64.8057 29.8104 64.0159 28.4364 63.4339 26.8127C62.852 25.2306 62.6025 23.4819 62.6025 21.65C62.6025 19.7348 62.8935 17.9445 63.5171 16.2792C64.099 14.6138 64.9304 13.1982 66.0112 11.9908C67.092 10.7834 68.3391 9.8258 69.8356 9.11801C71.332 8.41022 72.9948 8.07715 74.7823 8.07715C76.7776 8.07715 78.5235 8.49349 79.9784 9.36782C81.4749 10.2005 82.6388 11.4079 83.5534 12.9068V8.57676H90.4954V32.9746C90.4954 34.9731 90.1213 36.7633 89.373 38.3871C88.6248 39.9692 87.5856 41.3431 86.2554 42.4673C84.9251 43.5914 83.3455 44.4241 81.4749 45.0486C79.6043 45.6315 77.5674 45.9646 75.3227 45.9646C72.496 45.9646 70.085 45.5066 68.0897 44.6323C66.0943 43.7163 64.3484 42.4256 62.8519 40.7186L67.1336 36.3886C68.0897 37.4711 69.2952 38.3455 70.7085 39.0116C72.1219 39.6778 73.6599 39.9692 75.2811 39.9692C76.2372 39.9692 77.1517 39.8443 78.0247 39.5529C78.8976 39.3031 79.6459 38.8867 80.311 38.3455C80.9761 37.8042 81.5165 37.0964 81.8906 36.1805C82.2647 35.3061 82.4726 34.2236 82.4726 33.0162V30.4765C81.6828 31.9337 80.5188 33.0579 79.0223 33.8073C77.5258 34.5151 75.9047 34.8898 74.2003 34.8898ZM76.9439 28.5197C78.191 28.5197 79.2717 28.1866 80.2278 27.4788C81.1839 26.8127 81.9322 25.9384 82.4726 24.8559V19.4017C81.9322 17.9862 81.1424 16.9037 80.02 16.071C78.9392 15.2383 77.7753 14.8636 76.5282 14.8636C75.6552 14.8636 74.8654 15.0718 74.1587 15.4465C73.4521 15.8212 72.8285 16.3624 72.3297 16.9869C71.8309 17.6531 71.4152 18.4025 71.1242 19.2352C70.8332 20.0679 70.7085 20.9422 70.7085 21.8582C70.7085 22.8158 70.8748 23.7317 71.1658 24.5228C71.4983 25.3555 71.914 26.0633 72.496 26.6462C73.0779 27.229 73.7015 27.7287 74.4497 28.0617C75.198 28.3532 76.0294 28.5197 76.9439 28.5197Z" fill="white"/>
<path d="M108.661 35.2641C106.458 35.2641 104.504 34.8894 102.758 34.1816C101.013 33.4739 99.5161 32.4746 98.3106 31.2672C97.1051 30.0182 96.1905 28.6026 95.5254 26.9789C94.9019 25.3551 94.5693 23.6897 94.5693 21.8995C94.5693 19.9843 94.9019 18.194 95.5254 16.5286C96.149 14.8632 97.0635 13.3644 98.269 12.1153C99.4745 10.8663 100.929 9.86708 102.675 9.11765C104.421 8.36823 106.417 8.03516 108.62 8.03516C110.864 8.03516 112.818 8.40987 114.564 9.11765C116.31 9.86708 117.765 10.8247 118.97 12.0737C120.176 13.3227 121.09 14.78 121.672 16.4037C122.296 18.0274 122.587 19.7345 122.587 21.5664C122.587 22.0244 122.587 22.4823 122.545 22.9403C122.504 23.3983 122.462 23.773 122.379 24.1061H103.091C103.216 25.8547 103.881 27.2287 105.003 28.1446C106.167 29.0606 107.456 29.5186 108.911 29.5186C110.075 29.5186 111.197 29.2271 112.278 28.6859C113.359 28.103 114.065 27.3536 114.439 26.396L121.215 28.3112C120.176 30.3929 118.596 32.0583 116.435 33.349C114.273 34.6396 111.696 35.2641 108.661 35.2641ZM114.19 19.1932C114.024 17.5278 113.442 16.1955 112.402 15.2379C111.363 14.2803 110.075 13.7807 108.578 13.7807C106.999 13.7807 105.71 14.2803 104.712 15.2379C103.715 16.2372 103.091 17.5278 102.925 19.1516H114.19V19.1932Z" fill="white"/>
<path d="M139.131 35.2639C136.887 35.2639 134.933 34.8892 133.187 34.1814C131.441 33.432 129.986 32.4744 128.781 31.2253C127.575 29.9763 126.661 28.5191 126.079 26.8953C125.455 25.23 125.164 23.5229 125.164 21.7327C125.164 19.9424 125.455 18.1937 126.079 16.57C126.702 14.9046 127.617 13.489 128.781 12.24C129.986 10.9909 131.441 9.99172 133.187 9.2423C134.933 8.49288 136.928 8.11816 139.131 8.11816C141.376 8.11816 143.33 8.49288 145.076 9.2423C146.822 9.99172 148.276 10.9909 149.482 12.24C150.687 13.489 151.602 14.9462 152.226 16.57C152.849 18.2354 153.182 19.9424 153.182 21.7327C153.182 23.5229 152.891 25.2716 152.267 26.8953C151.644 28.5607 150.729 29.9763 149.565 31.2253C148.36 32.4744 146.905 33.4736 145.159 34.1814C143.33 34.9308 141.376 35.2639 139.131 35.2639ZM133.312 21.691C133.312 23.7727 133.852 25.3965 134.974 26.6455C136.055 27.8946 137.468 28.5191 139.173 28.5191C140.004 28.5191 140.752 28.3525 141.459 28.0195C142.166 27.6864 142.748 27.2284 143.288 26.6039C143.787 26.021 144.203 25.2716 144.494 24.4389C144.785 23.6062 144.951 22.6486 144.951 21.6494C144.951 19.5677 144.411 17.9439 143.288 16.6949C142.207 15.4458 140.794 14.8213 139.131 14.8213C138.3 14.8213 137.51 14.9879 136.803 15.3209C136.097 15.654 135.473 16.112 134.974 16.7365C134.476 17.3194 134.06 18.0688 133.769 18.9015C133.436 19.7758 133.312 20.6918 133.312 21.691Z" fill="white"/>
<path d="M173.676 15.4046C171.764 15.4462 170.018 15.7376 168.439 16.3622C166.859 16.945 165.737 17.861 165.03 19.0684V34.8063H157.049V8.5765H164.365V13.8641C165.28 12.1154 166.402 10.6999 167.815 9.70063C169.229 8.7014 170.725 8.20179 172.346 8.16016C172.72 8.16016 172.97 8.16016 173.136 8.16016C173.302 8.16016 173.469 8.16016 173.635 8.20179V15.4046H173.676Z" fill="white"/>
<path d="M27.3931 48.7544C40.1348 48.7544 50.464 38.4089 50.464 25.6472C50.464 12.8855 40.1348 2.54004 27.3931 2.54004C14.6514 2.54004 4.32227 12.8855 4.32227 25.6472C4.32227 38.4089 14.6514 48.7544 27.3931 48.7544Z" fill="white"/>
<path d="M27.35 0C12.4267 0 0.0390611 11.9907 -0.00250801 26.8959C-0.0440771 34.3901 2.99047 41.1766 7.89562 46.0478C12.7592 50.9191 19.4934 53.9584 26.9343 53.9584C34.3751 53.9584 41.1093 50.9191 45.9729 46.0478C50.8365 41.1766 53.871 34.4318 53.871 26.9792V6.16191C53.9126 2.78951 51.1275 0 47.7188 0H27.35ZM45.5572 26.8959C45.5572 32.017 43.4788 36.68 40.1117 40.0108C36.7446 43.3832 32.1304 45.4649 27.0174 45.4649C21.9044 45.4649 17.2487 43.3832 13.9231 40.0108C10.5976 36.68 8.51916 32.1002 8.47759 27.0208C8.39445 16.7371 17.0824 8.32691 27.35 8.32691H39.7375L32.7124 15.3631H27.2668C20.9483 15.3631 15.6275 20.3593 15.5028 26.6461C15.4196 29.9352 16.7498 32.8913 18.8699 35.0563C20.9483 37.138 23.8166 38.4287 27.0174 38.4287C29.6778 38.4287 32.172 37.5127 34.1257 35.9722C36.0795 34.4318 37.5344 32.2668 38.1579 29.8103H28.5139L34.1257 24.1897H45.5572V26.8959Z" fill="#023AFF"/>
</g>
<defs>
<clipPath id="clip0_19733_48477">
<rect width="173.676" height="54" fill="white"/>
</clipPath>
</defs>
</svg>
