<svg width="172" height="54" viewBox="0 0 172 54" fill="none" xmlns="http://www.w3.org/2000/svg">
<g clip-path="url(#clip0_19380_35980)">
<path d="M73.5578 34.8898C71.8388 34.8898 70.2835 34.5567 68.8919 33.8489C67.5003 33.1411 66.2725 32.1835 65.2902 31.0178C64.3079 29.8104 63.5302 28.4364 62.9572 26.8127C62.3842 25.2306 62.1387 23.4819 62.1387 21.65C62.1387 19.7348 62.4252 17.9445 63.0391 16.2792C63.6121 14.6138 64.4307 13.1982 65.4948 11.9908C66.559 10.7834 67.7868 9.8258 69.2603 9.11801C70.7337 8.41022 72.3708 8.07715 74.1308 8.07715C76.0953 8.07715 77.8144 8.49349 79.2469 9.36782C80.7203 10.2005 81.8663 11.4079 82.7667 12.9068V8.57676H89.6018V32.9746C89.6018 34.9731 89.2335 36.7633 88.4967 38.3871C87.76 39.9692 86.7368 41.3431 85.4271 42.4673C84.1174 43.5914 82.5621 44.4241 80.7203 45.0486C78.8785 45.6315 76.873 45.9646 74.6628 45.9646C71.8797 45.9646 69.5058 45.5066 67.5413 44.6323C65.5767 43.7163 63.8577 42.4256 62.3842 40.7186L66.5999 36.3886C67.5413 37.4711 68.7282 38.3455 70.1198 39.0116C71.5113 39.6778 73.0257 39.9692 74.6219 39.9692C75.5633 39.9692 76.4637 39.8443 77.3232 39.5529C78.1827 39.3031 78.9194 38.8867 79.5743 38.3455C80.2291 37.8042 80.7612 37.0964 81.1296 36.1805C81.4979 35.3061 81.7026 34.2236 81.7026 33.0162V30.4765C80.9249 31.9337 79.7789 33.0579 78.3055 33.8073C76.8321 34.5151 75.2358 34.8898 73.5578 34.8898ZM76.2591 28.5197C77.4869 28.5197 78.5511 28.1866 79.4924 27.4788C80.4338 26.8127 81.1705 25.9384 81.7026 24.8559V19.4017C81.1705 17.9862 80.3929 16.9037 79.2878 16.071C78.2236 15.2383 77.0776 14.8636 75.8498 14.8636C74.9903 14.8636 74.2126 15.0718 73.5168 15.4465C72.8211 15.8212 72.2071 16.3624 71.716 16.9869C71.2248 17.6531 70.8156 18.4025 70.5291 19.2352C70.2426 20.0679 70.1198 20.9422 70.1198 21.8582C70.1198 22.8158 70.2835 23.7317 70.57 24.5228C70.8974 25.3555 71.3067 26.0633 71.8797 26.6462C72.4527 27.229 73.0666 27.7287 73.8033 28.0617C74.5401 28.3532 75.3586 28.5197 76.2591 28.5197Z" fill="#1E1C1C"/>
<path d="M107.488 35.2644C105.318 35.2644 103.395 34.8897 101.676 34.1819C99.9567 33.4741 98.4833 32.4749 97.2964 31.2675C96.1094 30.0184 95.209 28.6029 94.5542 26.9791C93.9402 25.3554 93.6128 23.69 93.6128 21.8997C93.6128 19.9845 93.9402 18.1942 94.5542 16.5288C95.1681 14.8635 96.0685 13.3646 97.2554 12.1156C98.4424 10.8665 99.8749 9.86732 101.594 9.1179C103.313 8.36848 105.277 8.0354 107.447 8.0354C109.657 8.0354 111.58 8.41011 113.299 9.1179C115.019 9.86732 116.451 10.8249 117.638 12.074C118.825 13.323 119.725 14.7802 120.298 16.4039C120.912 18.0277 121.199 19.7347 121.199 21.5666C121.199 22.0246 121.199 22.4826 121.158 22.9406C121.117 23.3985 121.076 23.7733 120.994 24.1063H102.003C102.126 25.855 102.781 27.2289 103.886 28.1449C105.032 29.0608 106.301 29.5188 107.733 29.5188C108.879 29.5188 109.984 29.2274 111.048 28.6861C112.113 28.1032 112.808 27.3538 113.177 26.3962L119.848 28.3114C118.825 30.3931 117.27 32.0585 115.141 33.3492C113.013 34.6399 110.475 35.2644 107.488 35.2644ZM112.931 19.1935C112.767 17.5281 112.194 16.1958 111.171 15.2382C110.148 14.2806 108.879 13.781 107.406 13.781C105.85 13.781 104.582 14.2806 103.599 15.2382C102.617 16.2374 102.003 17.5281 101.839 19.1518H112.931V19.1935Z" fill="#1E1C1C"/>
<path d="M137.488 35.2644C135.278 35.2644 133.355 34.8897 131.636 34.1819C129.917 33.4324 128.484 32.4749 127.297 31.2258C126.11 29.9768 125.21 28.5196 124.637 26.8958C124.023 25.2304 123.736 23.5234 123.736 21.7331C123.736 19.9429 124.023 18.1942 124.637 16.5705C125.251 14.9051 126.151 13.4895 127.297 12.2405C128.484 10.9914 129.917 9.99221 131.636 9.24278C133.355 8.49336 135.319 8.11865 137.488 8.11865C139.699 8.11865 141.622 8.49336 143.341 9.24278C145.06 9.99221 146.493 10.9914 147.68 12.2405C148.867 13.4895 149.767 14.9467 150.381 16.5705C150.995 18.2358 151.322 19.9429 151.322 21.7331C151.322 23.5234 151.036 25.2721 150.422 26.8958C149.808 28.5612 148.907 29.9768 147.761 31.2258C146.575 32.4749 145.142 33.4741 143.423 34.1819C141.622 34.9313 139.699 35.2644 137.488 35.2644ZM131.758 21.6915C131.758 23.7732 132.29 25.397 133.395 26.646C134.46 27.8951 135.851 28.5196 137.529 28.5196C138.348 28.5196 139.085 28.353 139.78 28.02C140.476 27.6869 141.049 27.2289 141.581 26.6044C142.072 26.0215 142.482 25.2721 142.768 24.4394C143.055 23.6067 143.218 22.6491 143.218 21.6499C143.218 19.5681 142.686 17.9444 141.581 16.6954C140.517 15.4463 139.126 14.8218 137.488 14.8218C136.67 14.8218 135.892 14.9883 135.196 15.3214C134.501 15.6545 133.887 16.1125 133.395 16.737C132.904 17.3199 132.495 18.0693 132.209 18.902C131.881 19.7763 131.758 20.6923 131.758 21.6915Z" fill="#1E1C1C"/>
<path d="M171.5 15.4048C169.617 15.4464 167.898 15.7379 166.343 16.3624C164.788 16.9453 163.683 17.8612 162.987 19.0686V34.8065H155.129V8.57675H162.332V13.8643C163.233 12.1157 164.338 10.7001 165.729 9.70088C167.121 8.70165 168.594 8.20203 170.19 8.1604C170.559 8.1604 170.804 8.1604 170.968 8.1604C171.132 8.1604 171.295 8.1604 171.459 8.20204V15.4048H171.5Z" fill="#1E1C1C"/>
<path d="M27.7268 48.7917C40.3907 48.7917 50.6568 38.4383 50.6568 25.6667C50.6568 12.8952 40.3907 2.54175 27.7268 2.54175C15.063 2.54175 4.79688 12.8952 4.79688 25.6667C4.79688 38.4383 15.063 48.7917 27.7268 48.7917Z" fill="white"/>
<path d="M27.6844 0C12.8522 0 0.54027 12 0.498954 26.9167C0.457639 34.4167 3.47365 41.2083 8.34885 46.0833C13.1827 50.9583 19.8758 54 27.2712 54C34.6667 54 41.3597 50.9583 46.1936 46.0833C51.0275 41.2083 54.0435 34.4583 54.0435 27V6.16667C54.0848 2.79167 51.3167 0 47.9289 0H27.6844ZM45.7805 26.9167C45.7805 32.0417 43.7147 36.7083 40.3682 40.0417C37.0216 43.4167 32.4356 45.5 27.3539 45.5C22.2721 45.5 17.6448 43.4167 14.3396 40.0417C11.0343 36.7083 8.96858 32.125 8.92727 27.0417C8.84464 16.75 17.4795 8.33333 27.6844 8.33333H39.9963L33.0141 15.375H27.6018C21.3218 15.375 16.0335 20.375 15.9095 26.6667C15.8269 29.9583 17.149 32.9167 19.2561 35.0833C21.3218 37.1667 24.1726 38.4583 27.3539 38.4583C29.998 38.4583 32.477 37.5417 34.4188 36C36.3606 34.4583 37.8066 32.2917 38.4264 29.8333H28.8412L34.4188 24.2083H45.7805V26.9167Z" fill="#023AFF"/>
</g>
<defs>
<clipPath id="clip0_19380_35980">
<rect width="171" height="54" fill="white" transform="translate(0.5)"/>
</clipPath>
</defs>
</svg>
