<svg width="162" height="54" viewBox="0 0 162 54" fill="none" xmlns="http://www.w3.org/2000/svg">
<rect width="162" height="54" rx="8" fill="black"/>
<mask id="mask0_19641_52128" style="mask-type:alpha" maskUnits="userSpaceOnUse" x="23" y="15" width="24" height="26">
<path d="M46.0484 26.4004C47.3172 27.0986 47.3172 28.9014 46.0484 29.5996L25.7563 40.7658C24.5205 41.4459 23 40.5634 23 39.1663L23 16.8337C23 15.4366 24.5205 14.5541 25.7563 15.2342L46.0484 26.4004Z" fill="#C4C4C4"/>
</mask>
<g mask="url(#mask0_19641_52128)">
<path d="M20.6347 40.5466L33.2923 27.8179L20.8432 15.2988C20.3465 15.6172 20 16.1669 20 16.8339V39.1664C20 39.7355 20.2522 40.2191 20.6347 40.5466Z" fill="url(#paint0_linear_19641_52128)"/>
<path d="M43.048 26.4003C44.3169 27.0985 44.3169 28.9012 43.048 29.5994L37.9287 32.4165L33.292 27.8175L37.6923 23.4531L43.048 26.4003Z" fill="url(#paint1_linear_19641_52128)"/>
<path d="M37.9292 32.4163L33.2924 27.8174L20.6348 40.5461C21.1914 41.0228 22.0239 41.1686 22.7564 40.7656L37.9292 32.4163Z" fill="url(#paint2_linear_19641_52128)"/>
<path d="M20.8428 15.2986L33.2919 27.8177L37.6922 23.4533L22.7558 15.2342C22.11 14.8788 21.3865 14.9501 20.8428 15.2986Z" fill="url(#paint3_linear_19641_52128)"/>
</g>
<path d="M55.2988 16H53.5176L53.5293 15.0801H55.2988C55.9082 15.0801 56.416 14.9531 56.8223 14.6992C57.2285 14.4414 57.5332 14.082 57.7363 13.6211C57.9434 13.1562 58.0469 12.6133 58.0469 11.9922V11.4707C58.0469 10.9824 57.9883 10.5488 57.8711 10.1699C57.7539 9.78711 57.582 9.46484 57.3555 9.20312C57.1289 8.9375 56.8516 8.73633 56.5234 8.59961C56.1992 8.46289 55.8262 8.39453 55.4043 8.39453H53.4824V7.46875H55.4043C55.9629 7.46875 56.4727 7.5625 56.9336 7.75C57.3945 7.93359 57.791 8.20117 58.123 8.55273C58.459 8.90039 58.7168 9.32227 58.8965 9.81836C59.0762 10.3105 59.166 10.8652 59.166 11.4824V11.9922C59.166 12.6094 59.0762 13.166 58.8965 13.6621C58.7168 14.1543 58.457 14.5742 58.1172 14.9219C57.7812 15.2695 57.375 15.5371 56.8984 15.7246C56.4258 15.9082 55.8926 16 55.2988 16ZM54.1211 7.46875V16H52.9902V7.46875H54.1211ZM63.332 16.1172C62.8906 16.1172 62.4902 16.043 62.1309 15.8945C61.7754 15.7422 61.4688 15.5293 61.2109 15.2559C60.957 14.9824 60.7617 14.6582 60.625 14.2832C60.4883 13.9082 60.4199 13.498 60.4199 13.0527V12.8066C60.4199 12.291 60.4961 11.832 60.6484 11.4297C60.8008 11.0234 61.0078 10.6797 61.2695 10.3984C61.5312 10.1172 61.8281 9.9043 62.1602 9.75977C62.4922 9.61523 62.8359 9.54297 63.1914 9.54297C63.6445 9.54297 64.0352 9.62109 64.3633 9.77734C64.6953 9.93359 64.9668 10.1523 65.1777 10.4336C65.3887 10.7109 65.5449 11.0391 65.6465 11.418C65.748 11.793 65.7988 12.2031 65.7988 12.6484V13.1348H61.0645V12.25H64.7148V12.168C64.6992 11.8867 64.6406 11.6133 64.5391 11.3477C64.4414 11.082 64.2852 10.8633 64.0703 10.6914C63.8555 10.5195 63.5625 10.4336 63.1914 10.4336C62.9453 10.4336 62.7188 10.4863 62.5117 10.5918C62.3047 10.6934 62.127 10.8457 61.9785 11.0488C61.8301 11.252 61.7148 11.5 61.6328 11.793C61.5508 12.0859 61.5098 12.4238 61.5098 12.8066V13.0527C61.5098 13.3535 61.5508 13.6367 61.6328 13.9023C61.7188 14.1641 61.8418 14.3945 62.002 14.5938C62.166 14.793 62.3633 14.9492 62.5938 15.0625C62.8281 15.1758 63.0938 15.2324 63.3906 15.2324C63.7734 15.2324 64.0977 15.1543 64.3633 14.998C64.6289 14.8418 64.8613 14.6328 65.0605 14.3711L65.7168 14.8926C65.5801 15.0996 65.4062 15.2969 65.1953 15.4844C64.9844 15.6719 64.7246 15.8242 64.416 15.9414C64.1113 16.0586 63.75 16.1172 63.332 16.1172ZM70.7559 14.3184C70.7559 14.1621 70.7207 14.0176 70.6504 13.8848C70.584 13.748 70.4453 13.625 70.2344 13.5156C70.0273 13.4023 69.7148 13.3047 69.2969 13.2227C68.9453 13.1484 68.627 13.0605 68.3418 12.959C68.0605 12.8574 67.8203 12.7344 67.6211 12.5898C67.4258 12.4453 67.2754 12.2754 67.1699 12.0801C67.0645 11.8848 67.0117 11.6562 67.0117 11.3945C67.0117 11.1445 67.0664 10.9082 67.1758 10.6855C67.2891 10.4629 67.4473 10.2656 67.6504 10.0938C67.8574 9.92188 68.1055 9.78711 68.3945 9.68945C68.6836 9.5918 69.0059 9.54297 69.3613 9.54297C69.8691 9.54297 70.3027 9.63281 70.6621 9.8125C71.0215 9.99219 71.2969 10.2324 71.4883 10.5332C71.6797 10.8301 71.7754 11.1602 71.7754 11.5234H70.6914C70.6914 11.3477 70.6387 11.1777 70.5332 11.0137C70.4316 10.8457 70.2812 10.707 70.082 10.5977C69.8867 10.4883 69.6465 10.4336 69.3613 10.4336C69.0605 10.4336 68.8164 10.4805 68.6289 10.5742C68.4453 10.6641 68.3105 10.7793 68.2246 10.9199C68.1426 11.0605 68.1016 11.209 68.1016 11.3652C68.1016 11.4824 68.1211 11.5879 68.1602 11.6816C68.2031 11.7715 68.2773 11.8555 68.3828 11.9336C68.4883 12.0078 68.6367 12.0781 68.8281 12.1445C69.0195 12.2109 69.2637 12.2773 69.5605 12.3438C70.0801 12.4609 70.5078 12.6016 70.8438 12.7656C71.1797 12.9297 71.4297 13.1309 71.5938 13.3691C71.7578 13.6074 71.8398 13.8965 71.8398 14.2363C71.8398 14.5137 71.7812 14.7676 71.6641 14.998C71.5508 15.2285 71.3848 15.4277 71.166 15.5957C70.9512 15.7598 70.6934 15.8887 70.3926 15.9824C70.0957 16.0723 69.7617 16.1172 69.3906 16.1172C68.832 16.1172 68.3594 16.0176 67.9727 15.8184C67.5859 15.6191 67.293 15.3613 67.0938 15.0449C66.8945 14.7285 66.7949 14.3945 66.7949 14.043H67.8848C67.9004 14.3398 67.9863 14.5762 68.1426 14.752C68.2988 14.9238 68.4902 15.0469 68.7168 15.1211C68.9434 15.1914 69.168 15.2266 69.3906 15.2266C69.6875 15.2266 69.9355 15.1875 70.1348 15.1094C70.3379 15.0312 70.4922 14.9238 70.5977 14.7871C70.7031 14.6504 70.7559 14.4941 70.7559 14.3184ZM75.8008 15.2266C76.0586 15.2266 76.2969 15.1738 76.5156 15.0684C76.7344 14.9629 76.9141 14.8184 77.0547 14.6348C77.1953 14.4473 77.2754 14.2344 77.2949 13.9961H78.3262C78.3066 14.3711 78.1797 14.7207 77.9453 15.0449C77.7148 15.3652 77.4121 15.625 77.0371 15.8242C76.6621 16.0195 76.25 16.1172 75.8008 16.1172C75.3242 16.1172 74.9082 16.0332 74.5527 15.8652C74.2012 15.6973 73.9082 15.4668 73.6738 15.1738C73.4434 14.8809 73.2695 14.5449 73.1523 14.166C73.0391 13.7832 72.9824 13.3789 72.9824 12.9531V12.707C72.9824 12.2812 73.0391 11.8789 73.1523 11.5C73.2695 11.1172 73.4434 10.7793 73.6738 10.4863C73.9082 10.1934 74.2012 9.96289 74.5527 9.79492C74.9082 9.62695 75.3242 9.54297 75.8008 9.54297C76.2969 9.54297 76.7305 9.64453 77.1016 9.84766C77.4727 10.0469 77.7637 10.3203 77.9746 10.668C78.1895 11.0117 78.3066 11.4023 78.3262 11.8398H77.2949C77.2754 11.5781 77.2012 11.3418 77.0723 11.1309C76.9473 10.9199 76.7754 10.752 76.5566 10.627C76.3418 10.498 76.0898 10.4336 75.8008 10.4336C75.4688 10.4336 75.1895 10.5 74.9629 10.6328C74.7402 10.7617 74.5625 10.9375 74.4297 11.1602C74.3008 11.3789 74.207 11.623 74.1484 11.8926C74.0938 12.1582 74.0664 12.4297 74.0664 12.707V12.9531C74.0664 13.2305 74.0938 13.5039 74.1484 13.7734C74.2031 14.043 74.2949 14.2871 74.4238 14.5059C74.5566 14.7246 74.7344 14.9004 74.957 15.0332C75.1836 15.1621 75.4648 15.2266 75.8008 15.2266ZM83.2832 14.916V11.6523C83.2832 11.4023 83.2324 11.1855 83.1309 11.002C83.0332 10.8145 82.8848 10.6699 82.6855 10.5684C82.4863 10.4668 82.2402 10.416 81.9473 10.416C81.6738 10.416 81.4336 10.4629 81.2266 10.5566C81.0234 10.6504 80.8633 10.7734 80.7461 10.9258C80.6328 11.0781 80.5762 11.2422 80.5762 11.418H79.4922C79.4922 11.1914 79.5508 10.9668 79.668 10.7441C79.7852 10.5215 79.9531 10.3203 80.1719 10.1406C80.3945 9.95703 80.6602 9.8125 80.9688 9.70703C81.2812 9.59766 81.6289 9.54297 82.0117 9.54297C82.4727 9.54297 82.8789 9.62109 83.2305 9.77734C83.5859 9.93359 83.8633 10.1699 84.0625 10.4863C84.2656 10.7988 84.3672 11.1914 84.3672 11.6641V14.6172C84.3672 14.8281 84.3848 15.0527 84.4199 15.291C84.459 15.5293 84.5156 15.7344 84.5898 15.9062V16H83.459C83.4043 15.875 83.3613 15.709 83.3301 15.502C83.2988 15.291 83.2832 15.0957 83.2832 14.916ZM83.4707 12.1562L83.4824 12.918H82.3867C82.0781 12.918 81.8027 12.9434 81.5605 12.9941C81.3184 13.041 81.1152 13.1133 80.9512 13.2109C80.7871 13.3086 80.6621 13.4316 80.5762 13.5801C80.4902 13.7246 80.4473 13.8945 80.4473 14.0898C80.4473 14.2891 80.4922 14.4707 80.582 14.6348C80.6719 14.7988 80.8066 14.9297 80.9863 15.0273C81.1699 15.1211 81.3945 15.168 81.6602 15.168C81.9922 15.168 82.2852 15.0977 82.5391 14.957C82.793 14.8164 82.9941 14.6445 83.1426 14.4414C83.2949 14.2383 83.377 14.041 83.3887 13.8496L83.8516 14.3711C83.8242 14.5352 83.75 14.7168 83.6289 14.916C83.5078 15.1152 83.3457 15.3066 83.1426 15.4902C82.9434 15.6699 82.7051 15.8203 82.4277 15.9414C82.1543 16.0586 81.8457 16.1172 81.502 16.1172C81.0723 16.1172 80.6953 16.0332 80.3711 15.8652C80.0508 15.6973 79.8008 15.4727 79.6211 15.1914C79.4453 14.9062 79.3574 14.5879 79.3574 14.2363C79.3574 13.8965 79.4238 13.5977 79.5566 13.3398C79.6895 13.0781 79.8809 12.8613 80.1309 12.6895C80.3809 12.5137 80.6816 12.3809 81.0332 12.291C81.3848 12.2012 81.7773 12.1562 82.2109 12.1562H83.4707ZM87.1562 10.6562V16H86.0723V9.66016H87.127L87.1562 10.6562ZM89.1367 9.625L89.1309 10.6328C89.041 10.6133 88.9551 10.6016 88.873 10.5977C88.7949 10.5898 88.7051 10.5859 88.6035 10.5859C88.3535 10.5859 88.1328 10.625 87.9414 10.7031C87.75 10.7812 87.5879 10.8906 87.4551 11.0312C87.3223 11.1719 87.2168 11.3398 87.1387 11.5352C87.0645 11.7266 87.0156 11.9375 86.9922 12.168L86.6875 12.3438C86.6875 11.9609 86.7246 11.6016 86.7988 11.2656C86.877 10.9297 86.9961 10.6328 87.1562 10.375C87.3164 10.1133 87.5195 9.91016 87.7656 9.76562C88.0156 9.61719 88.3125 9.54297 88.6562 9.54297C88.7344 9.54297 88.8242 9.55273 88.9258 9.57227C89.0273 9.58789 89.0977 9.60547 89.1367 9.625ZM94.1289 9.66016H95.1133V15.8652C95.1133 16.4238 95 16.9004 94.7734 17.2949C94.5469 17.6895 94.2305 17.9883 93.8242 18.1914C93.4219 18.3984 92.957 18.502 92.4297 18.502C92.2109 18.502 91.9531 18.4668 91.6562 18.3965C91.3633 18.3301 91.0742 18.2148 90.7891 18.0508C90.5078 17.8906 90.2715 17.6738 90.0801 17.4004L90.6484 16.7559C90.9141 17.0762 91.1914 17.2988 91.4805 17.4238C91.7734 17.5488 92.0625 17.6113 92.3477 17.6113C92.6914 17.6113 92.9883 17.5469 93.2383 17.418C93.4883 17.2891 93.6816 17.0977 93.8184 16.8438C93.959 16.5938 94.0293 16.2852 94.0293 15.918V11.0547L94.1289 9.66016ZM89.7637 12.9004V12.7773C89.7637 12.293 89.8203 11.8535 89.9336 11.459C90.0508 11.0605 90.2168 10.7188 90.4316 10.4336C90.6504 10.1484 90.9141 9.92969 91.2227 9.77734C91.5312 9.62109 91.8789 9.54297 92.2656 9.54297C92.6641 9.54297 93.0117 9.61328 93.3086 9.75391C93.6094 9.89062 93.8633 10.0918 94.0703 10.3574C94.2812 10.6191 94.4473 10.9355 94.5684 11.3066C94.6895 11.6777 94.7734 12.0977 94.8203 12.5664V13.1055C94.7773 13.5703 94.6934 13.9883 94.5684 14.3594C94.4473 14.7305 94.2812 15.0469 94.0703 15.3086C93.8633 15.5703 93.6094 15.7715 93.3086 15.9121C93.0078 16.0488 92.6562 16.1172 92.2539 16.1172C91.875 16.1172 91.5312 16.0371 91.2227 15.877C90.918 15.7168 90.6562 15.4922 90.4375 15.2031C90.2188 14.9141 90.0508 14.5742 89.9336 14.1836C89.8203 13.7891 89.7637 13.3613 89.7637 12.9004ZM90.8477 12.7773V12.9004C90.8477 13.2168 90.8789 13.5137 90.9414 13.791C91.0078 14.0684 91.1074 14.3125 91.2402 14.5234C91.377 14.7344 91.5508 14.9004 91.7617 15.0215C91.9727 15.1387 92.2246 15.1973 92.5176 15.1973C92.877 15.1973 93.1738 15.1211 93.4082 14.9688C93.6426 14.8164 93.8281 14.6152 93.9648 14.3652C94.1055 14.1152 94.2148 13.8438 94.293 13.5508V12.1387C94.25 11.9238 94.1836 11.7168 94.0938 11.5176C94.0078 11.3145 93.8945 11.1348 93.7539 10.9785C93.6172 10.8184 93.4473 10.6914 93.2441 10.5977C93.041 10.5039 92.8027 10.457 92.5293 10.457C92.2324 10.457 91.9766 10.5195 91.7617 10.6445C91.5508 10.7656 91.377 10.9336 91.2402 11.1484C91.1074 11.3594 91.0078 11.6055 90.9414 11.8867C90.8789 12.1641 90.8477 12.4609 90.8477 12.7773ZM100.498 14.916V11.6523C100.498 11.4023 100.447 11.1855 100.346 11.002C100.248 10.8145 100.1 10.6699 99.9004 10.5684C99.7012 10.4668 99.4551 10.416 99.1621 10.416C98.8887 10.416 98.6484 10.4629 98.4414 10.5566C98.2383 10.6504 98.0781 10.7734 97.9609 10.9258C97.8477 11.0781 97.791 11.2422 97.791 11.418H96.707C96.707 11.1914 96.7656 10.9668 96.8828 10.7441C97 10.5215 97.168 10.3203 97.3867 10.1406C97.6094 9.95703 97.875 9.8125 98.1836 9.70703C98.4961 9.59766 98.8438 9.54297 99.2266 9.54297C99.6875 9.54297 100.094 9.62109 100.445 9.77734C100.801 9.93359 101.078 10.1699 101.277 10.4863C101.48 10.7988 101.582 11.1914 101.582 11.6641V14.6172C101.582 14.8281 101.6 15.0527 101.635 15.291C101.674 15.5293 101.73 15.7344 101.805 15.9062V16H100.674C100.619 15.875 100.576 15.709 100.545 15.502C100.514 15.291 100.498 15.0957 100.498 14.916ZM100.686 12.1562L100.697 12.918H99.6016C99.293 12.918 99.0176 12.9434 98.7754 12.9941C98.5332 13.041 98.3301 13.1133 98.166 13.2109C98.002 13.3086 97.877 13.4316 97.791 13.5801C97.7051 13.7246 97.6621 13.8945 97.6621 14.0898C97.6621 14.2891 97.707 14.4707 97.7969 14.6348C97.8867 14.7988 98.0215 14.9297 98.2012 15.0273C98.3848 15.1211 98.6094 15.168 98.875 15.168C99.207 15.168 99.5 15.0977 99.7539 14.957C100.008 14.8164 100.209 14.6445 100.357 14.4414C100.51 14.2383 100.592 14.041 100.604 13.8496L101.066 14.3711C101.039 14.5352 100.965 14.7168 100.844 14.916C100.723 15.1152 100.561 15.3066 100.357 15.4902C100.158 15.6699 99.9199 15.8203 99.6426 15.9414C99.3691 16.0586 99.0605 16.1172 98.7168 16.1172C98.2871 16.1172 97.9102 16.0332 97.5859 15.8652C97.2656 15.6973 97.0156 15.4727 96.8359 15.1914C96.6602 14.9062 96.5723 14.5879 96.5723 14.2363C96.5723 13.8965 96.6387 13.5977 96.7715 13.3398C96.9043 13.0781 97.0957 12.8613 97.3457 12.6895C97.5957 12.5137 97.8965 12.3809 98.248 12.291C98.5996 12.2012 98.9922 12.1562 99.4258 12.1562H100.686ZM108.895 16.1172C108.453 16.1172 108.053 16.043 107.693 15.8945C107.338 15.7422 107.031 15.5293 106.773 15.2559C106.52 14.9824 106.324 14.6582 106.188 14.2832C106.051 13.9082 105.982 13.498 105.982 13.0527V12.8066C105.982 12.291 106.059 11.832 106.211 11.4297C106.363 11.0234 106.57 10.6797 106.832 10.3984C107.094 10.1172 107.391 9.9043 107.723 9.75977C108.055 9.61523 108.398 9.54297 108.754 9.54297C109.207 9.54297 109.598 9.62109 109.926 9.77734C110.258 9.93359 110.529 10.1523 110.74 10.4336C110.951 10.7109 111.107 11.0391 111.209 11.418C111.311 11.793 111.361 12.2031 111.361 12.6484V13.1348H106.627V12.25H110.277V12.168C110.262 11.8867 110.203 11.6133 110.102 11.3477C110.004 11.082 109.848 10.8633 109.633 10.6914C109.418 10.5195 109.125 10.4336 108.754 10.4336C108.508 10.4336 108.281 10.4863 108.074 10.5918C107.867 10.6934 107.689 10.8457 107.541 11.0488C107.393 11.252 107.277 11.5 107.195 11.793C107.113 12.0859 107.072 12.4238 107.072 12.8066V13.0527C107.072 13.3535 107.113 13.6367 107.195 13.9023C107.281 14.1641 107.404 14.3945 107.564 14.5938C107.729 14.793 107.926 14.9492 108.156 15.0625C108.391 15.1758 108.656 15.2324 108.953 15.2324C109.336 15.2324 109.66 15.1543 109.926 14.998C110.191 14.8418 110.424 14.6328 110.623 14.3711L111.279 14.8926C111.143 15.0996 110.969 15.2969 110.758 15.4844C110.547 15.6719 110.287 15.8242 109.979 15.9414C109.674 16.0586 109.312 16.1172 108.895 16.1172ZM113.711 11.0137V16H112.627V9.66016H113.652L113.711 11.0137ZM113.453 12.5898L113.002 12.5723C113.006 12.1387 113.07 11.7383 113.195 11.3711C113.32 11 113.496 10.6777 113.723 10.4043C113.949 10.1309 114.219 9.91992 114.531 9.77148C114.848 9.61914 115.197 9.54297 115.58 9.54297C115.893 9.54297 116.174 9.58594 116.424 9.67188C116.674 9.75391 116.887 9.88672 117.062 10.0703C117.242 10.2539 117.379 10.4922 117.473 10.7852C117.566 11.0742 117.613 11.4277 117.613 11.8457V16H116.523V11.834C116.523 11.502 116.475 11.2363 116.377 11.0371C116.279 10.834 116.137 10.6875 115.949 10.5977C115.762 10.5039 115.531 10.457 115.258 10.457C114.988 10.457 114.742 10.5137 114.52 10.627C114.301 10.7402 114.111 10.8965 113.951 11.0957C113.795 11.2949 113.672 11.5234 113.582 11.7812C113.496 12.0352 113.453 12.3047 113.453 12.5898Z" fill="white"/>
<path d="M58.8457 35.6973H55.1445V33.7539H58.8457C59.4902 33.7539 60.0111 33.6497 60.4082 33.4414C60.8053 33.2331 61.0951 32.9466 61.2773 32.582C61.4661 32.2109 61.5605 31.7878 61.5605 31.3125C61.5605 30.8633 61.4661 30.4434 61.2773 30.0527C61.0951 29.6556 60.8053 29.3366 60.4082 29.0957C60.0111 28.8548 59.4902 28.7344 58.8457 28.7344H55.8965V41H53.4453V26.7812H58.8457C59.946 26.7812 60.8802 26.9766 61.6484 27.3672C62.4232 27.7513 63.0124 28.2852 63.416 28.9688C63.8197 29.6458 64.0215 30.4206 64.0215 31.293C64.0215 32.2109 63.8197 32.9987 63.416 33.6562C63.0124 34.3138 62.4232 34.8184 61.6484 35.1699C60.8802 35.5215 59.946 35.6973 58.8457 35.6973ZM68.6539 26V41H66.2906V26H68.6539ZM77.3391 38.8809V33.8418C77.3391 33.4642 77.2707 33.1387 77.134 32.8652C76.9973 32.5918 76.7889 32.3802 76.509 32.2305C76.2355 32.0807 75.8905 32.0059 75.4738 32.0059C75.0897 32.0059 74.7577 32.071 74.4777 32.2012C74.1978 32.3314 73.9797 32.5072 73.8234 32.7285C73.6672 32.9499 73.5891 33.2005 73.5891 33.4805H71.2453C71.2453 33.0638 71.3462 32.6602 71.548 32.2695C71.7499 31.8789 72.0428 31.5306 72.427 31.2246C72.8111 30.9186 73.2701 30.6777 73.8039 30.502C74.3378 30.3262 74.9367 30.2383 75.6008 30.2383C76.3951 30.2383 77.0982 30.3717 77.7102 30.6387C78.3286 30.9056 78.8137 31.3092 79.1652 31.8496C79.5233 32.3835 79.7023 33.054 79.7023 33.8613V38.5586C79.7023 39.0404 79.7349 39.4733 79.8 39.8574C79.8716 40.235 79.9725 40.5638 80.1027 40.8438V41H77.6906C77.5799 40.7461 77.4921 40.4238 77.427 40.0332C77.3684 39.6361 77.3391 39.252 77.3391 38.8809ZM77.6809 34.5742L77.7004 36.0293H76.0109C75.5747 36.0293 75.1906 36.0716 74.8586 36.1562C74.5266 36.2344 74.2499 36.3516 74.0285 36.5078C73.8072 36.6641 73.6411 36.8529 73.5305 37.0742C73.4198 37.2956 73.3645 37.5462 73.3645 37.8262C73.3645 38.1061 73.4296 38.3633 73.5598 38.5977C73.69 38.8255 73.8788 39.0046 74.1262 39.1348C74.3801 39.265 74.6861 39.3301 75.0441 39.3301C75.5259 39.3301 75.9458 39.2324 76.3039 39.0371C76.6685 38.8353 76.9549 38.5911 77.1633 38.3047C77.3716 38.0117 77.4823 37.735 77.4953 37.4746L78.257 38.5195C78.1789 38.7865 78.0454 39.0729 77.8566 39.3789C77.6678 39.6849 77.4204 39.9779 77.1145 40.2578C76.815 40.5312 76.4536 40.7559 76.0305 40.9316C75.6138 41.1074 75.132 41.1953 74.5852 41.1953C73.8951 41.1953 73.2798 41.0586 72.7395 40.7852C72.1991 40.5052 71.7759 40.1309 71.4699 39.6621C71.1639 39.1868 71.0109 38.6497 71.0109 38.0508C71.0109 37.4909 71.1151 36.9961 71.3234 36.5664C71.5383 36.1302 71.8508 35.7656 72.2609 35.4727C72.6776 35.1797 73.1854 34.9583 73.7844 34.8086C74.3833 34.6523 75.0669 34.5742 75.8352 34.5742H77.6809ZM85.2234 39.8477L88.0945 30.4336H90.6141L86.3758 42.6113C86.2781 42.8717 86.1512 43.1549 85.9949 43.4609C85.8387 43.7669 85.6336 44.0566 85.3797 44.3301C85.1323 44.61 84.823 44.8346 84.452 45.0039C84.0809 45.1797 83.6316 45.2676 83.1043 45.2676C82.896 45.2676 82.6941 45.248 82.4988 45.209C82.31 45.1764 82.131 45.1406 81.9617 45.1016L81.952 43.3047C82.0171 43.3112 82.0952 43.3177 82.1863 43.3242C82.284 43.3307 82.3621 43.334 82.4207 43.334C82.8113 43.334 83.1368 43.2852 83.3973 43.1875C83.6577 43.0964 83.8693 42.9466 84.032 42.7383C84.2013 42.5299 84.3445 42.25 84.4617 41.8984L85.2234 39.8477ZM83.6023 30.4336L86.1121 38.3438L86.532 40.8242L84.9012 41.2441L81.0633 30.4336H83.6023ZM104.957 37.3379C104.957 37.0449 104.911 36.7845 104.82 36.5566C104.736 36.3288 104.583 36.1204 104.361 35.9316C104.14 35.7428 103.827 35.5605 103.424 35.3848C103.027 35.2025 102.519 35.0169 101.9 34.8281C101.223 34.6198 100.598 34.3887 100.025 34.1348C99.459 33.8743 98.9642 33.5749 98.541 33.2363C98.1178 32.8913 97.7891 32.4974 97.5547 32.0547C97.3203 31.6055 97.2031 31.0879 97.2031 30.502C97.2031 29.9225 97.3236 29.3952 97.5645 28.9199C97.8118 28.4447 98.1602 28.0345 98.6094 27.6895C99.0651 27.3379 99.6022 27.0677 100.221 26.8789C100.839 26.6836 101.523 26.5859 102.271 26.5859C103.326 26.5859 104.234 26.7812 104.996 27.1719C105.764 27.5625 106.354 28.0866 106.764 28.7441C107.18 29.4017 107.389 30.1276 107.389 30.9219H104.957C104.957 30.4531 104.856 30.0397 104.654 29.6816C104.459 29.3171 104.16 29.0306 103.756 28.8223C103.359 28.6139 102.854 28.5098 102.242 28.5098C101.663 28.5098 101.181 28.5977 100.797 28.7734C100.413 28.9492 100.126 29.1868 99.9375 29.4863C99.7487 29.7858 99.6543 30.1243 99.6543 30.502C99.6543 30.7689 99.7161 31.013 99.8398 31.2344C99.9635 31.4492 100.152 31.651 100.406 31.8398C100.66 32.0221 100.979 32.1947 101.363 32.3574C101.747 32.5202 102.2 32.6764 102.721 32.8262C103.508 33.0605 104.195 33.321 104.781 33.6074C105.367 33.8874 105.855 34.2064 106.246 34.5645C106.637 34.9225 106.93 35.3294 107.125 35.7852C107.32 36.2344 107.418 36.7454 107.418 37.3184C107.418 37.9173 107.298 38.4577 107.057 38.9395C106.816 39.4147 106.471 39.8216 106.021 40.1602C105.579 40.4922 105.045 40.7493 104.42 40.9316C103.801 41.1074 103.111 41.1953 102.35 41.1953C101.666 41.1953 100.992 41.1042 100.328 40.9219C99.6706 40.7396 99.0716 40.4629 98.5312 40.0918C97.9909 39.7142 97.5612 39.2454 97.2422 38.6855C96.9232 38.1191 96.7637 37.4583 96.7637 36.7031H99.2148C99.2148 37.1654 99.293 37.5592 99.4492 37.8848C99.612 38.2103 99.8366 38.4772 100.123 38.6855C100.41 38.8874 100.742 39.0371 101.119 39.1348C101.503 39.2324 101.913 39.2812 102.35 39.2812C102.923 39.2812 103.401 39.1999 103.785 39.0371C104.176 38.8743 104.469 38.6465 104.664 38.3535C104.859 38.0605 104.957 37.722 104.957 37.3379ZM114.345 30.4336V32.1523H108.388V30.4336H114.345ZM110.107 27.8457H112.461V38.0801C112.461 38.4056 112.506 38.6562 112.597 38.832C112.695 39.0013 112.828 39.1152 112.998 39.1738C113.167 39.2324 113.365 39.2617 113.593 39.2617C113.756 39.2617 113.912 39.252 114.062 39.2324C114.212 39.2129 114.332 39.1934 114.423 39.1738L114.433 40.9707C114.238 41.0293 114.01 41.0814 113.75 41.127C113.496 41.1725 113.203 41.1953 112.871 41.1953C112.33 41.1953 111.852 41.1009 111.435 40.9121C111.018 40.7168 110.693 40.401 110.459 39.9648C110.224 39.5286 110.107 38.9492 110.107 38.2266V27.8457ZM115.628 35.834V35.6094C115.628 34.8477 115.739 34.1413 115.96 33.4902C116.182 32.8327 116.501 32.263 116.917 31.7812C117.34 31.293 117.855 30.9154 118.46 30.6484C119.072 30.375 119.762 30.2383 120.53 30.2383C121.305 30.2383 121.995 30.375 122.601 30.6484C123.213 30.9154 123.73 31.293 124.154 31.7812C124.577 32.263 124.899 32.8327 125.12 33.4902C125.342 34.1413 125.452 34.8477 125.452 35.6094V35.834C125.452 36.5957 125.342 37.3021 125.12 37.9531C124.899 38.6042 124.577 39.1738 124.154 39.6621C123.73 40.1439 123.216 40.5215 122.611 40.7949C122.005 41.0618 121.318 41.1953 120.55 41.1953C119.775 41.1953 119.082 41.0618 118.47 40.7949C117.864 40.5215 117.35 40.1439 116.927 39.6621C116.504 39.1738 116.182 38.6042 115.96 37.9531C115.739 37.3021 115.628 36.5957 115.628 35.834ZM117.982 35.6094V35.834C117.982 36.3092 118.03 36.7585 118.128 37.1816C118.226 37.6048 118.379 37.9759 118.587 38.2949C118.795 38.6139 119.062 38.8646 119.388 39.0469C119.713 39.2292 120.101 39.3203 120.55 39.3203C120.986 39.3203 121.364 39.2292 121.683 39.0469C122.008 38.8646 122.275 38.6139 122.484 38.2949C122.692 37.9759 122.845 37.6048 122.943 37.1816C123.047 36.7585 123.099 36.3092 123.099 35.834V35.6094C123.099 35.1406 123.047 34.6979 122.943 34.2812C122.845 33.8581 122.689 33.4837 122.474 33.1582C122.265 32.8327 121.999 32.5788 121.673 32.3965C121.354 32.2077 120.973 32.1133 120.53 32.1133C120.088 32.1133 119.704 32.2077 119.378 32.3965C119.059 32.5788 118.795 32.8327 118.587 33.1582C118.379 33.4837 118.226 33.8581 118.128 34.2812C118.03 34.6979 117.982 35.1406 117.982 35.6094ZM129.938 32.4453V41H127.585V30.4336H129.831L129.938 32.4453ZM133.171 30.3652L133.151 32.5527C133.008 32.5267 132.852 32.5072 132.682 32.4941C132.52 32.4811 132.357 32.4746 132.194 32.4746C131.79 32.4746 131.436 32.5332 131.13 32.6504C130.824 32.7611 130.567 32.9238 130.358 33.1387C130.156 33.347 130 33.6009 129.889 33.9004C129.779 34.1999 129.714 34.5352 129.694 34.9062L129.157 34.9453C129.157 34.2812 129.222 33.666 129.352 33.0996C129.483 32.5332 129.678 32.0352 129.938 31.6055C130.205 31.1758 130.537 30.8405 130.934 30.5996C131.338 30.3587 131.804 30.2383 132.331 30.2383C132.474 30.2383 132.627 30.2513 132.79 30.2773C132.959 30.3034 133.086 30.3327 133.171 30.3652ZM139.258 41.1953C138.477 41.1953 137.771 41.0684 137.139 40.8145C136.514 40.554 135.98 40.1927 135.537 39.7305C135.101 39.2682 134.766 38.7246 134.532 38.0996C134.297 37.4746 134.18 36.8008 134.18 36.0781V35.6875C134.18 34.8607 134.301 34.112 134.541 33.4414C134.782 32.7708 135.118 32.1979 135.547 31.7227C135.977 31.2409 136.485 30.873 137.071 30.6191C137.657 30.3652 138.291 30.2383 138.975 30.2383C139.73 30.2383 140.391 30.3652 140.957 30.6191C141.524 30.873 141.993 31.2311 142.364 31.6934C142.741 32.1491 143.021 32.6927 143.204 33.3242C143.392 33.9557 143.487 34.6523 143.487 35.4141V36.4199H135.323V34.7305H141.162V34.5449C141.149 34.1217 141.065 33.7246 140.909 33.3535C140.759 32.9824 140.528 32.6829 140.215 32.4551C139.903 32.2272 139.486 32.1133 138.965 32.1133C138.575 32.1133 138.226 32.1979 137.92 32.3672C137.621 32.5299 137.37 32.7676 137.168 33.0801C136.967 33.3926 136.81 33.7702 136.7 34.2129C136.595 34.6491 136.543 35.1406 136.543 35.6875V36.0781C136.543 36.5404 136.605 36.9701 136.729 37.3672C136.859 37.7578 137.048 38.0996 137.295 38.3926C137.543 38.6855 137.842 38.9167 138.194 39.0859C138.545 39.2487 138.946 39.3301 139.395 39.3301C139.961 39.3301 140.466 39.2161 140.909 38.9883C141.351 38.7604 141.735 38.4382 142.061 38.0215L143.301 39.2227C143.073 39.5547 142.777 39.8737 142.412 40.1797C142.048 40.4792 141.602 40.7233 141.075 40.9121C140.554 41.1009 139.948 41.1953 139.258 41.1953Z" fill="white"/>
<defs>
<linearGradient id="paint0_linear_19641_52128" x1="28.6769" y1="22.874" x2="20.0711" y2="31.5506" gradientUnits="userSpaceOnUse">
<stop stop-color="#00C3FF"/>
<stop offset="1" stop-color="#1BE2FA"/>
</linearGradient>
<linearGradient id="paint1_linear_19641_52128" x1="33.292" y1="27.8176" x2="44.7381" y2="27.8176" gradientUnits="userSpaceOnUse">
<stop stop-color="#FFCE00"/>
<stop offset="1" stop-color="#FFEA00"/>
</linearGradient>
<linearGradient id="paint2_linear_19641_52128" x1="20.3693" y1="42.0999" x2="35.595" y2="29.8932" gradientUnits="userSpaceOnUse">
<stop stop-color="#DE2453"/>
<stop offset="1" stop-color="#FE3944"/>
</linearGradient>
<linearGradient id="paint3_linear_19641_52128" x1="21.1072" y1="13.9014" x2="35.5971" y2="25.7365" gradientUnits="userSpaceOnUse">
<stop stop-color="#11D574"/>
<stop offset="1" stop-color="#01F176"/>
</linearGradient>
</defs>
</svg>
